<svg xmlns="http://www.w3.org/2000/svg" xmlns:xlink="http://www.w3.org/1999/xlink" width="279" zoomAndPan="magnify" viewBox="0 0 209.25 170.249993" height="227" preserveAspectRatio="xMidYMid meet" version="1.0"><defs><g/><clipPath id="1ac2373fe2"><path d="M 101 36 L 166 36 L 166 72.472656 L 101 72.472656 Z M 101 36 " clip-rule="nonzero"/></clipPath><clipPath id="d3db0f4f93"><path d="M 29.082031 0 L 178.898438 0 L 178.898438 59 L 29.082031 59 Z M 29.082031 0 " clip-rule="nonzero"/></clipPath></defs><path fill="#233dff" d="M 55.117188 64.21875 C 96.378906 73.433594 125.617188 19.070312 162.3125 33.445312 C 149.464844 30.628906 132.554688 37.953125 111.589844 55.425781 C 89.160156 71.65625 70.335938 74.585938 55.117188 64.21875 Z M 55.117188 64.21875 " fill-opacity="1" fill-rule="evenodd"/><g clip-path="url(#1ac2373fe2)"><path fill="#233dff" d="M 165.71875 40.492188 C 143.78125 23.847656 123.21875 64.894531 101.476562 70.007812 C 123.269531 83.21875 140.246094 35.289062 165.71875 40.492188 Z M 165.71875 40.492188 " fill-opacity="1" fill-rule="evenodd"/></g><g clip-path="url(#d3db0f4f93)"><path fill="#cae8ff" d="M 178.789062 36.375 C 137.953125 -18.492188 73.199219 58.746094 54.820312 33.546875 C 39.808594 12.972656 77.511719 1.128906 89.335938 20.972656 C 69.179688 -23.261719 9.523438 10.914062 35.59375 46 C 51.933594 67.988281 79.660156 56.433594 102.507812 41.785156 C 125.097656 27.300781 152.226562 14.820312 178.789062 36.375 Z M 178.789062 36.375 " fill-opacity="1" fill-rule="evenodd"/></g><g fill="#f4f6fc" fill-opacity="1"><g transform="translate(57.026122, 118.915073)"><g><path d="M 4.1875 0 L 16.859375 0 C 22.375 0 27.453125 -3.375 27.453125 -9.421875 C 27.453125 -12.671875 25.203125 -16.21875 22.234375 -17.390625 C 24.078125 -18.375 25.84375 -20.765625 25.84375 -23.734375 C 25.84375 -30.234375 20.390625 -32.484375 15.453125 -32.484375 L 4.1875 -32.484375 Z M 10.03125 -19.40625 L 10.03125 -27.21875 L 15.546875 -27.21875 C 18.328125 -27.21875 20.484375 -25.9375 20.484375 -23.40625 C 20.484375 -20.21875 18.28125 -19.40625 16 -19.40625 Z M 10.03125 -5.5625 L 10.03125 -14.375 L 16.71875 -14.375 C 19.78125 -14.375 21.703125 -12.390625 21.703125 -10.078125 C 21.703125 -7.015625 19.953125 -5.5625 16.953125 -5.5625 Z M 10.03125 -5.5625 "/></g></g></g><g fill="#f4f6fc" fill-opacity="1"><g transform="translate(86.321646, 118.915073)"><g><path d="M 8 0.453125 C 9.34375 0.453125 11.015625 0.234375 12.1875 0 L 12.1875 -4.71875 C 11.59375 -4.625 10.96875 -4.578125 10.640625 -4.578125 C 9.515625 -4.578125 8.8125 -5.03125 8.8125 -6.109375 L 8.8125 -32.484375 L 3.203125 -32.484375 L 3.203125 -4.578125 C 3.203125 -0.53125 5.359375 0.453125 8 0.453125 Z M 8 0.453125 "/></g></g></g><g fill="#f4f6fc" fill-opacity="1"><g transform="translate(99.497739, 118.915073)"><g><path d="M 11.015625 0.453125 C 13.75 0.453125 16.140625 -0.53125 17.796875 -2.6875 L 17.796875 0 L 23.5 0 L 23.5 -22.96875 L 17.796875 -22.96875 L 17.796875 -12.625 C 17.796875 -5.984375 15.109375 -4.625 12.484375 -4.625 C 9.078125 -4.625 8.328125 -6.921875 8.328125 -10.6875 L 8.328125 -22.96875 L 2.640625 -22.96875 L 2.640625 -10.875 C 2.640625 -3.953125 5.21875 0.453125 11.015625 0.453125 Z M 11.015625 0.453125 "/></g></g></g><g fill="#f4f6fc" fill-opacity="1"><g transform="translate(126.332812, 118.915073)"><g><path d="M 12.90625 0.453125 C 16.765625 0.453125 19.828125 -0.890625 22.328125 -3.671875 L 18.46875 -7.0625 C 16.859375 -5.265625 15.015625 -4.625 12.953125 -4.625 C 9.34375 -4.625 7.6875 -6.640625 7.203125 -9.65625 L 22.96875 -9.65625 C 23.09375 -9.984375 23.171875 -10.921875 23.171875 -11.859375 C 23.171875 -17 20.578125 -23.453125 12.53125 -23.453125 C 4.765625 -23.453125 1.265625 -17.390625 1.265625 -11.40625 C 1.265625 -5.21875 4.984375 0.453125 12.90625 0.453125 Z M 7.203125 -13.703125 C 7.71875 -16.578125 9.171875 -18.734375 12.484375 -18.734375 C 15.40625 -18.734375 17.296875 -17 17.65625 -13.703125 Z M 7.203125 -13.703125 "/></g></g></g><g fill="#233dff" fill-opacity="1"><g transform="translate(60.084212, 154.443817)"><g><path d="M 6.75 0 L 8.953125 0 L 15.53125 -16.484375 L 12.28125 -16.484375 L 7.859375 -4.8125 L 3.421875 -16.484375 L 0.140625 -16.484375 Z M 6.75 0 "/></g></g></g><g fill="#233dff" fill-opacity="1"><g transform="translate(77.665043, 154.443817)"><g><path d="M 2.125 0 L 5.09375 0 L 5.09375 -16.484375 L 2.125 -16.484375 Z M 2.125 0 "/></g></g></g><g fill="#233dff" fill-opacity="1"><g transform="translate(86.787044, 154.443817)"><g><path d="M 6.828125 0.1875 C 9.984375 0.1875 12.5625 -1.6875 12.5625 -4.8125 C 12.5625 -10.28125 4.578125 -9.234375 4.578125 -12.328125 C 4.578125 -13.375 5.5 -14.09375 6.65625 -14.09375 C 7.765625 -14.09375 8.75 -13.453125 9.328125 -12.328125 L 11.78125 -13.828125 C 10.65625 -15.84375 8.796875 -16.734375 6.765625 -16.734375 C 3.984375 -16.734375 1.625 -15.09375 1.625 -12.171875 C 1.625 -6.8125 9.59375 -7.953125 9.59375 -4.53125 C 9.59375 -3.375 8.640625 -2.4375 6.875 -2.4375 C 5.125 -2.4375 3.671875 -3.34375 3.46875 -5.40625 L 0.53125 -4.65625 C 1.046875 -1.40625 3.921875 0.1875 6.828125 0.1875 Z M 6.828125 0.1875 "/></g></g></g><g fill="#233dff" fill-opacity="1"><g transform="translate(101.964402, 154.443817)"><g><path d="M 2.125 0 L 5.09375 0 L 5.09375 -16.484375 L 2.125 -16.484375 Z M 2.125 0 "/></g></g></g><g fill="#233dff" fill-opacity="1"><g transform="translate(111.086402, 154.443817)"><g><path d="M 8.90625 0.234375 C 14.359375 0.234375 16.875 -3.75 16.875 -8.25 C 16.875 -12.734375 14.359375 -16.734375 8.90625 -16.734375 C 3.46875 -16.734375 0.953125 -12.734375 0.953125 -8.25 C 0.953125 -3.75 3.46875 0.234375 8.90625 0.234375 Z M 8.90625 -2.390625 C 5.375 -2.390625 4.078125 -5.125 4.078125 -8.25 C 4.078125 -11.34375 5.375 -14.09375 8.90625 -14.09375 C 12.453125 -14.09375 13.734375 -11.34375 13.734375 -8.25 C 13.734375 -5.125 12.453125 -2.390625 8.90625 -2.390625 Z M 8.90625 -2.390625 "/></g></g></g><g fill="#233dff" fill-opacity="1"><g transform="translate(130.825691, 154.443817)"><g><path d="M 2.125 0 L 4.96875 0 L 4.96875 -11.5625 L 11.875 0 L 14.84375 0 L 14.84375 -16.484375 L 11.984375 -16.484375 L 11.984375 -4.953125 L 5.0625 -16.484375 L 2.125 -16.484375 Z M 2.125 0 "/></g></g></g></svg>