<svg xmlns="http://www.w3.org/2000/svg" xmlns:xlink="http://www.w3.org/1999/xlink" width="418" zoomAndPan="magnify" viewBox="0 0 313.5 103.5" height="138" preserveAspectRatio="xMidYMid meet" version="1.0"><defs><g/><clipPath id="223c5b4df5"><path d="M 72 59 L 138 59 L 138 95.347656 L 72 95.347656 Z M 72 59 " clip-rule="nonzero"/></clipPath><clipPath id="f4fac202c5"><path d="M 0.503906 22.949219 L 150.53125 22.949219 L 150.53125 82 L 0.503906 82 Z M 0.503906 22.949219 " clip-rule="nonzero"/></clipPath></defs><path fill="#00b2ff" d="M 26.535156 87.132812 C 67.773438 96.34375 97 42.011719 133.675781 56.375 C 120.832031 53.558594 103.933594 60.882812 82.976562 78.347656 C 60.558594 94.570312 41.742188 97.5 26.535156 87.132812 Z M 26.535156 87.132812 " fill-opacity="1" fill-rule="evenodd"/><g clip-path="url(#223c5b4df5)"><path fill="#00b2ff" d="M 137.078125 63.417969 C 115.15625 46.78125 94.601562 87.808594 72.871094 92.917969 C 94.652344 106.128906 111.617188 58.21875 137.078125 63.417969 Z M 137.078125 63.417969 " fill-opacity="1" fill-rule="evenodd"/></g><g clip-path="url(#f4fac202c5)"><path fill="#cae8ff" d="M 150.144531 59.304688 C 109.328125 4.464844 44.605469 81.664062 26.234375 56.480469 C 11.234375 35.914062 48.914062 24.078125 60.734375 43.910156 C 40.589844 -0.300781 -19.035156 33.855469 7.019531 68.925781 C 23.351562 90.902344 51.066406 79.351562 73.902344 64.710938 C 96.476562 50.238281 123.59375 37.761719 150.144531 59.304688 Z M 150.144531 59.304688 " fill-opacity="1" fill-rule="evenodd"/></g><g fill="#f4f6fc" fill-opacity="1"><g transform="translate(161.23104, 57.332384)"><g><path d="M 4.1875 0 L 16.84375 0 C 22.359375 0 27.453125 -3.375 27.453125 -9.421875 C 27.453125 -12.671875 25.1875 -16.203125 22.234375 -17.375 C 24.0625 -18.359375 25.84375 -20.75 25.84375 -23.71875 C 25.84375 -30.234375 20.390625 -32.484375 15.453125 -32.484375 L 4.1875 -32.484375 Z M 10.015625 -19.40625 L 10.015625 -27.21875 L 15.546875 -27.21875 C 18.328125 -27.21875 20.484375 -25.9375 20.484375 -23.40625 C 20.484375 -20.203125 18.28125 -19.40625 16 -19.40625 Z M 10.015625 -5.5625 L 10.015625 -14.359375 L 16.71875 -14.359375 C 19.765625 -14.359375 21.703125 -12.390625 21.703125 -10.0625 C 21.703125 -7.015625 19.953125 -5.5625 16.9375 -5.5625 Z M 10.015625 -5.5625 "/></g></g></g><g fill="#f4f6fc" fill-opacity="1"><g transform="translate(190.511571, 57.332384)"><g><path d="M 8 0.453125 C 9.328125 0.453125 11.015625 0.234375 12.1875 0 L 12.1875 -4.71875 C 11.578125 -4.625 10.96875 -4.578125 10.640625 -4.578125 C 9.515625 -4.578125 8.796875 -5.03125 8.796875 -6.109375 L 8.796875 -32.484375 L 3.1875 -32.484375 L 3.1875 -4.578125 C 3.1875 -0.53125 5.359375 0.453125 8 0.453125 Z M 8 0.453125 "/></g></g></g><g fill="#f4f6fc" fill-opacity="1"><g transform="translate(203.680914, 57.332384)"><g><path d="M 11.015625 0.453125 C 13.75 0.453125 16.140625 -0.53125 17.796875 -2.6875 L 17.796875 0 L 23.5 0 L 23.5 -22.96875 L 17.796875 -22.96875 L 17.796875 -12.625 C 17.796875 -5.984375 15.109375 -4.625 12.484375 -4.625 C 9.078125 -4.625 8.328125 -6.921875 8.328125 -10.6875 L 8.328125 -22.96875 L 2.640625 -22.96875 L 2.640625 -10.875 C 2.640625 -3.953125 5.21875 0.453125 11.015625 0.453125 Z M 11.015625 0.453125 "/></g></g></g><g fill="#f4f6fc" fill-opacity="1"><g transform="translate(230.502248, 57.332384)"><g><path d="M 12.890625 0.453125 C 16.75 0.453125 19.8125 -0.890625 22.328125 -3.671875 L 18.453125 -7.0625 C 16.84375 -5.265625 15.015625 -4.625 12.9375 -4.625 C 9.328125 -4.625 7.671875 -6.640625 7.1875 -9.65625 L 22.96875 -9.65625 C 23.078125 -9.96875 23.171875 -10.921875 23.171875 -11.859375 C 23.171875 -16.984375 20.578125 -23.453125 12.53125 -23.453125 C 4.765625 -23.453125 1.265625 -17.375 1.265625 -11.40625 C 1.265625 -5.21875 4.984375 0.453125 12.890625 0.453125 Z M 7.1875 -13.703125 C 7.71875 -16.578125 9.171875 -18.734375 12.484375 -18.734375 C 15.40625 -18.734375 17.28125 -16.984375 17.65625 -13.703125 Z M 7.1875 -13.703125 "/></g></g></g><g fill="#00b2ff" fill-opacity="1"><g transform="translate(168.033833, 87.92992)"><g><path d="M 6.75 0 L 8.953125 0 L 15.53125 -16.484375 L 12.28125 -16.484375 L 7.859375 -4.8125 L 3.421875 -16.484375 L 0.140625 -16.484375 Z M 6.75 0 "/></g></g></g><g fill="#00b2ff" fill-opacity="1"><g transform="translate(185.607218, 87.92992)"><g><path d="M 2.125 0 L 5.09375 0 L 5.09375 -16.484375 L 2.125 -16.484375 Z M 2.125 0 "/></g></g></g><g fill="#00b2ff" fill-opacity="1"><g transform="translate(194.725356, 87.92992)"><g><path d="M 6.828125 0.1875 C 9.984375 0.1875 12.5625 -1.6875 12.5625 -4.8125 C 12.5625 -10.28125 4.578125 -9.234375 4.578125 -12.328125 C 4.578125 -13.375 5.5 -14.09375 6.65625 -14.09375 C 7.765625 -14.09375 8.75 -13.453125 9.328125 -12.328125 L 11.78125 -13.828125 C 10.65625 -15.84375 8.796875 -16.734375 6.765625 -16.734375 C 3.984375 -16.734375 1.625 -15.09375 1.625 -12.171875 C 1.625 -6.8125 9.59375 -7.953125 9.59375 -4.53125 C 9.59375 -3.375 8.640625 -2.4375 6.875 -2.4375 C 5.125 -2.4375 3.671875 -3.34375 3.46875 -5.40625 L 0.53125 -4.65625 C 1.046875 -1.40625 3.921875 0.1875 6.828125 0.1875 Z M 6.828125 0.1875 "/></g></g></g><g fill="#00b2ff" fill-opacity="1"><g transform="translate(209.896287, 87.92992)"><g><path d="M 2.125 0 L 5.09375 0 L 5.09375 -16.484375 L 2.125 -16.484375 Z M 2.125 0 "/></g></g></g><g fill="#00b2ff" fill-opacity="1"><g transform="translate(219.014424, 87.92992)"><g><path d="M 8.90625 0.234375 C 14.359375 0.234375 16.875 -3.75 16.875 -8.25 C 16.875 -12.734375 14.359375 -16.734375 8.90625 -16.734375 C 3.46875 -16.734375 0.953125 -12.734375 0.953125 -8.25 C 0.953125 -3.75 3.46875 0.234375 8.90625 0.234375 Z M 8.90625 -2.390625 C 5.375 -2.390625 4.078125 -5.125 4.078125 -8.25 C 4.078125 -11.34375 5.375 -14.09375 8.90625 -14.09375 C 12.453125 -14.09375 13.734375 -11.34375 13.734375 -8.25 C 13.734375 -5.125 12.453125 -2.390625 8.90625 -2.390625 Z M 8.90625 -2.390625 "/></g></g></g><g fill="#00b2ff" fill-opacity="1"><g transform="translate(238.745354, 87.92992)"><g><path d="M 2.125 0 L 4.96875 0 L 4.96875 -11.5625 L 11.875 0 L 14.84375 0 L 14.84375 -16.484375 L 11.984375 -16.484375 L 11.984375 -4.953125 L 5.0625 -16.484375 L 2.125 -16.484375 Z M 2.125 0 "/></g></g></g></svg>